<?xml version="1.0" encoding="UTF-8" standalone="no"?>
<svg
   xmlns:dc="http://purl.org/dc/elements/1.1/"
   xmlns:cc="http://creativecommons.org/ns#"
   xmlns:rdf="http://www.w3.org/1999/02/22-rdf-syntax-ns#"
   xmlns:svg="http://www.w3.org/2000/svg"
   xmlns="http://www.w3.org/2000/svg"
   xmlns:xlink="http://www.w3.org/1999/xlink"
   id="svg8"
   version="1.1"
   viewBox="0 0 100 100"
   height="100"
   width="100">
  <defs
     id="defs2">
    <clipPath
       id="clipPath27"
       clipPathUnits="userSpaceOnUse">
      <rect
         ry="4.4840765"
         y="2"
         x="2"
         height="96"
         width="96"
         id="rect29"
         style="opacity:1;vector-effect:none;fill:#800080;fill-opacity:1;stroke:none;stroke-width:3.42420387;stroke-linecap:round;stroke-linejoin:round;stroke-miterlimit:4;stroke-dasharray:none;stroke-dashoffset:0;stroke-opacity:1;paint-order:markers fill stroke" />
    </clipPath>
  </defs>
  <metadata
     id="metadata5">
    <rdf:RDF>
      <cc:Work
         rdf:about="">
        <dc:format>image/svg+xml</dc:format>
        <dc:type
           rdf:resource="http://purl.org/dc/dcmitype/StillImage" />
        <dc:title></dc:title>
      </cc:Work>
    </rdf:RDF>
  </metadata>
  <g
     style="display:none"
     id="layer1">
    <image
       clip-path="url(#clipPath27)"
       width="96"
       height="96"
       preserveAspectRatio="none"
       xlink:href="file:///home/daniele/hack/git/birthday-2020/birthday-ng/src/assets/tutti.jpg"
       id="image24"
       x="2"
       y="2" />
  </g>
  <g
     id="layer2">
    <g
       id="score">
      <path
         style="fill:#554400;stroke-width:0.47231451"
         d="m 10.635212,95.491006 c -1.0323378,-1.14072 -0.9934002,-3.049073 0.08207,-4.022358 0.78885,-0.713898 4.201989,-0.781676 39.365057,-0.781676 36.699617,0 38.537898,0.04043 39.282993,0.863741 0.987341,1.090999 1.00681,3.094486 0.03949,4.061824 -0.662653,0.662634 -4.883147,0.74221 -39.365077,0.74221 -36.817355,0 -38.659391,-0.04038 -39.404524,-0.863741 z m 4.694844,-14.132245 c 0.240342,-7.635857 0.995804,-17.947905 1.453279,-19.83721 0.216868,-0.895622 0.573876,-1.062707 2.270689,-1.062707 h 2.013364 l 0.316838,2.388428 c 0.604005,4.553216 1.194313,14.406802 1.208024,20.16459 l 0.01379,5.785852 h -3.755054 -3.755061 z m 9.865157,4.014673 c 0.559547,-5.923046 1.579736,-9.905333 3.599722,-14.051357 1.77253,-3.63813 2.609774,-4.657011 8.926602,-10.863233 3.833843,-3.766709 7.208506,-7.312808 7.499259,-7.880219 0.737538,-1.439321 0.659478,-4.666179 -0.150782,-6.233045 C 44.696333,45.622958 42.040268,42.847444 39.167646,40.177769 29.167104,30.883747 26.273271,25.414193 25.221096,13.817788 l -0.310693,-3.424281 h 25.101565 25.101566 l -0.318807,3.660438 c -0.96884,11.123898 -3.977304,16.806042 -13.698444,25.872509 -3.023852,2.820213 -5.801052,5.713857 -6.17155,6.430325 -0.807383,1.561302 -0.880049,4.791144 -0.139984,6.221846 0.293506,0.567411 3.657925,4.11351 7.476484,7.880219 5.701743,5.624321 7.2551,7.456415 8.689709,10.248998 2.072275,4.033854 3.365226,8.840868 3.81759,14.193278 l 0.329326,3.896594 H 49.984791 24.87173 Z M 72.515554,83.425425 C 72.10636,78.584692 70.245563,73.076315 67.784999,69.421914 66.622047,67.694716 63.057744,63.855361 59.673148,60.684095 53.454494,54.857396 51.919906,52.688632 51.899899,49.698518 c -0.02045,-3.054175 1.286273,-4.926992 8.145631,-11.674612 4.237497,-4.168467 7.330657,-7.649331 8.368969,-9.417955 2.169865,-3.696077 3.74656,-8.646464 4.105202,-12.88924 l 0.290275,-3.433946 H 50.000269 27.190563 l 0.294492,3.424281 c 0.360183,4.188111 1.994868,9.306527 4.140267,12.963717 0.994794,1.695797 4.170594,5.261805 8.329687,9.353143 6.859357,6.74762 8.166067,8.620437 8.14563,11.674612 -0.02012,3.004921 -1.550363,5.15766 -7.924908,11.148663 -3.913773,3.678286 -6.894999,6.932197 -8.101441,8.842469 -2.43437,3.854554 -4.198328,9.110536 -4.582386,13.653918 l -0.301341,3.564888 H 50.000269 72.809976 Z M 36.066991,83.034084 c 4.657177,-3.982736 11.047432,-10.709689 12.172433,-12.813789 0.992394,-1.856083 1.052373,-2.533561 1.052373,-11.886867 0,-13.1467 0.234646,-12.556656 -8.577221,-21.568309 -3.72515,-3.809609 -6.773,-7.157138 -6.773,-7.438953 0,-0.358267 4.830403,-0.512393 16.058693,-0.512393 11.228291,0 16.058694,0.154126 16.058694,0.512393 0,0.281815 -3.04785,3.629344 -6.773,7.438953 -8.811868,9.011653 -8.577222,8.421609 -8.577222,21.568309 0,8.922139 0.09367,10.108409 0.932349,11.807863 0.961528,1.948378 7.94766,9.273508 12.528615,13.136554 l 2.59773,2.190628 -16.767166,-0.0054 -16.767165,-0.0054 2.833887,-2.423488 z m 41.083008,-1.675323 c 0.324957,-8.362929 1.096676,-18.810308 1.484621,-20.098579 0.203469,-0.675674 0.661033,-0.822139 2.213323,-0.708472 1.885885,0.138095 1.968564,0.212575 2.280698,2.054469 0.563882,3.327493 1.350588,15.540309 1.350588,20.966504 v 5.225031 h -3.809146 -3.809145 z m -61.190966,-22.5947 c -0.89737,-1.08126 -0.701699,-4.028796 0.316885,-4.773607 1.180007,-0.862839 4.677982,-0.784038 5.5879,0.125881 0.846931,0.846931 0.97609,3.133712 0.253279,4.4843 -0.643585,1.202551 -5.195412,1.32335 -6.158064,0.163426 z m 61.87116,-0.0024 c -0.790499,-0.952493 -0.811734,-3.783409 -0.0342,-4.560928 0.86282,-0.86282 5.658404,-0.771795 6.220931,0.118078 0.595002,0.941248 0.581301,3.145988 -0.02659,4.281881 -0.644515,1.204289 -5.19553,1.323208 -6.160105,0.160969 z m -62.230738,-7.728 c -0.353551,-1.014196 -0.353551,-1.861982 0,-2.876178 0.493205,-1.414814 0.548088,-1.435836 3.390212,-1.298865 2.6727,0.128805 2.922927,0.236421 3.343797,1.438089 0.291678,0.832789 0.291678,1.76494 0,2.59773 -0.42087,1.201667 -0.671097,1.309284 -3.343797,1.438089 -2.842124,0.136971 -2.897007,0.115948 -3.390212,-1.298865 z m 62.007952,0.885845 c -0.504928,-0.816991 -0.414895,-4.200119 0.126174,-4.741188 0.257336,-0.257336 1.716774,-0.403215 3.243195,-0.324178 2.546743,0.131866 2.812765,0.250672 3.23006,1.442567 0.291489,0.832563 0.291427,1.765167 -1.7e-4,2.59773 -0.421177,1.202545 -0.670059,1.309213 -3.356234,1.438415 -1.846211,0.0888 -3.025586,-0.06152 -3.243025,-0.413346 z M 16.005102,45.122451 c -0.783097,-0.943576 -0.810869,-3.773764 -0.04605,-4.695288 0.962648,-1.159925 5.514475,-1.039128 6.15806,0.163421 0.722816,1.350593 0.593657,3.63737 -0.253274,4.4843 -0.974167,0.974168 -5.062162,1.007357 -5.858716,0.04757 z m 61.825091,-0.05797 c -0.343533,-0.413936 -0.624608,-1.456779 -0.624608,-2.317435 0,-2.376861 0.851787,-3.070042 3.772499,-3.070042 2.0113,0 2.622484,0.185368 3.012214,0.913577 0.722812,1.350593 0.593653,3.63737 -0.253278,4.4843 -1.012062,1.012062 -5.06418,1.004925 -5.906827,-0.01039 z M 16.783335,37.669671 C 16.32586,35.780364 15.570398,25.468319 15.330056,17.832461 l -0.234145,-7.438954 h 3.75506 3.755057 l -0.01379,5.785853 c -0.0137,5.75779 -0.604019,15.611375 -1.208029,20.16459 l -0.316834,2.388428 H 19.05401 c -1.696813,0 -2.053822,-0.167084 -2.270689,-1.062707 z M 78.63462,37.931039 C 78.246675,36.642769 77.474956,26.195387 77.149999,17.832461 l -0.289061,-7.438954 h 3.809145 3.809146 v 5.225031 c 0,5.426196 -0.786706,17.63901 -1.350588,20.966507 -0.312134,1.841891 -0.394813,1.91637 -2.280698,2.054465 -1.55229,0.113668 -2.009854,-0.0328 -2.213323,-0.708471 z M 10.595745,7.7620406 C 9.5935932,6.7598874 9.657606,4.577138 10.717277,3.6181502 c 0.78885,-0.7139001 4.201988,-0.7816749 39.365057,-0.7816749 36.699617,0 38.537898,0.040421 39.282993,0.8637409 0.987341,1.0909979 1.00681,3.0944841 0.03949,4.0618244 -0.662662,0.6626459 -4.886736,0.7422087 -39.404544,0.7422087 -34.517807,0 -38.741881,-0.079563 -39.404524,-0.7422087 z"
         id="path4549" />
      <text
         id="text3731"
         y="66.927086"
         x="50.337009"
         style="font-style:normal;font-variant:normal;font-weight:normal;font-stretch:normal;font-size:53.33333206px;line-height:1.25;font-family:'AR JULIAN';-inkscape-font-specification:'AR JULIAN, Normal';font-variant-ligatures:normal;font-variant-caps:normal;font-variant-numeric:normal;font-feature-settings:normal;text-align:center;letter-spacing:0px;word-spacing:0px;writing-mode:lr-tb;text-anchor:middle;fill:#ffcc00;fill-opacity:1;stroke:#ffe680;stroke-width:6;stroke-miterlimit:4;stroke-dasharray:none;"
         xml:space="preserve"><tspan
           y="66.927086"
           x="50.337009"
           id="tspan3729">59</tspan></text>
      <text
         xml:space="preserve"
         style="font-style:normal;font-variant:normal;font-weight:normal;font-stretch:normal;font-size:53.33333206px;line-height:1.25;font-family:'AR JULIAN';-inkscape-font-specification:'AR JULIAN, Normal';font-variant-ligatures:normal;font-variant-caps:normal;font-variant-numeric:normal;font-feature-settings:normal;text-align:center;letter-spacing:0px;word-spacing:0px;writing-mode:lr-tb;text-anchor:middle;fill:#554400;fill-opacity:1;stroke:none;"
         x="50.337009"
         y="66.927086"
         id="text3727"><tspan
           id="tspan3725"
           x="50.337009"
           y="66.927086">59</tspan></text>
    </g>
  </g>
</svg>
